<?xml version="1.0" encoding="utf-8"?>
<!-- Generator: Adobe Illustrator 19.0.0, SVG Export Plug-In . SVG Version: 6.00 Build 0)  -->
<svg version="1.1" id="Capa_1" xmlns="http://www.w3.org/2000/svg" xmlns:xlink="http://www.w3.org/1999/xlink" x="0px" y="0px"
	 viewBox="-41 164.9 512 512" style="enable-background:new -41 164.9 512 512;" xml:space="preserve">
<style type="text/css">
	.st0{fill:#F44E4A;}
	.st1{fill:#3F51B5;stroke:#FFFFFF;stroke-width:3;stroke-miterlimit:10;}
	.st2{fill:#FFFFFF;}
</style>
<g id="XMLID_1_">
	<path id="XMLID_20_" class="st0" d="M406,208.5c-2.3,3.8-5.4,7-8.2,10.5c-23.8,30.2-51.2,56.6-83.3,77.8
		c-20.8,13.8-41.8,27.5-64.6,37.8c-17.2,7.7-34.6,14.8-52,22.1c-3.8,1.6-7.7,2.8-12,4.4c5.7,3,10.8,5.5,15.6,8.3
		c2,1.2,3.8,1.2,5.8,0.1c2.2-1.1,4.4-2.1,6.6-3.1c14-6.1,27.7-12.8,40.2-21.5c7.5-5.2,14.6-11,22-16.5c1.8-1.4,3.7-2.6,5.6-4
		c0.3,0.4,0.2,0.2,0.5,0.6c-14.8,16.8-31,32-48.8,45.8c44.2-22.2,83.9-50.2,117.8-86.3c-14.2,19.7-30.3,37.5-48,54
		c36.9-22.8,68.3-51.5,94.6-86c-12.8,22.2-26.9,43.3-44.5,62c1.1-0.5,2-1.1,2.8-1.9c11.5-11.6,81.3-77.8,89.3-87.2
		c1.3,3.7-83.8,117.1-112.1,144c-17.6,16.8-35.9,32.8-55.9,46.6c-9.1,6.3-18.4,12.1-27.7,18.2c-0.8,0.5-1.8,1.5-1.7,2.2
		c0.3,3.3,0.8,6.5,1.4,9.9c0.8-0.4,1.2-0.5,1.7-0.8c19.2-10.2,36.9-22.6,54.3-35.5c18.1-13.4,34.6-28.5,50.6-44.4
		c20-19.9,37.7-41.9,53.7-65.2c6.5-9.4,12.2-19.3,18.5-28.8c-0.5,4.8-3.4,8.4-5.4,12.5c-11.9,24.7-25.6,48.3-41.6,70.6
		c-20.3,28.1-43.7,53.2-69.2,76.6c-18.8,17.2-39.1,32.6-60.7,46.1c-3.3,2.1-5.6,4.7-6.3,8.7c-0.5,2.6-1.5,5-2.3,7.6
		c-0.3,0.8-0.5,1.7-0.9,3.2c18.6-9.7,35.5-20.4,51.2-33.1c15.6-12.6,29.5-27,41.9-42.8c-2.8,5.2-5.8,10.1-9.3,14.7
		c-10.5,13.7-21.9,26.7-34.7,38.4c-15.6,14-32.3,26.5-50.6,36.8c-5.6,3.2-11,6.3-14.6,12.1c-2.2,3.5-5.4,6.4-8.2,9.5
		c-2.1,2.2-4.3,4.3-6.5,6.5c12.3-4.4,24-9.9,34.9-16.9c11-7,21.1-15.2,30.3-24.6c0,0.6-0.1,1.1-0.4,1.4
		c-6.5,6.5-12.4,13.6-19.6,19.3c-18.6,14.8-39.1,26.6-61.7,34.6c-10,3.5-19.8,8-29.9,11.1c-14,4.3-28.4,4.7-42.9,3.2
		c-49.2-5.3-87.9-45.1-90.4-94.6c-1.2-23.6,4.9-45.2,17.5-65c9.7-15.1,22.2-27.4,37.8-36.5c6-3.5,12.4-6.2,18.4-9.6
		c12.8-7.4,25.8-14.3,39.6-19.6c17.2-6.6,34.7-11.9,53.3-12.6c2.9-0.1,5.9,0,8.8,0c-27.3,2.4-52.3,11.7-75.8,25.3
		c0.7,0.2,1.4,0.3,2.1,0.1c11.9-2.4,23.9-4.1,35.5-7.3c19.7-5.5,39.3-11.4,58.7-17.9c17.5-5.9,34.4-13.2,50.8-21.7
		c20.1-10.4,39.9-21.5,58.2-34.9c10.7-7.8,21.3-15.9,31-24.9C380.5,235.3,392.9,221.5,406,208.5z"/>
</g>
<circle class="st1" cx="136.5" cy="461.5" r="108.7"/>
<path class="st2" d="M198.6,528.4c1.5,0,3.1-0.6,4.3-1.8l0.1-0.1c2.3-2.4,2.3-6.1-0.1-8.5c-2.3-2.3-6.2-2.3-8.5,0l-0.1,0.1
	c-2.3,2.4-2.3,6.1,0.1,8.5C195.5,527.8,197.1,528.4,198.6,528.4z"/>
<path class="st2" d="M205.5,514.8c1,0.7,2.2,1,3.4,1c2,0,3.9-0.9,5-2.7c10.2-15.3,15.6-33.2,15.6-51.6c0-3.3-2.7-6-6-6
	c-3.3,0-6,2.7-6,6c0,16.1-4.7,31.6-13.6,44.9C202,509.2,202.7,513,205.5,514.8z"/>
<path class="st2" d="M114.3,402.9c1.5,0,3.1-0.6,4.3-1.8c2.3-2.3,2.3-6.2,0-8.5c-1.3-1.3-2-3.1-2-5c0-1.9,0.7-3.6,2-5
	c2.8-2.8,7.2-2.8,9.9,0c2.3,2.3,6.2,2.3,8.5,0c2.3-2.3,2.3-6.2,0-8.5c-7.4-7.4-19.6-7.4-27,0c-3.6,3.6-5.6,8.4-5.6,13.5
	s2,9.9,5.6,13.5C111.2,402.3,112.8,402.9,114.3,402.9z"/>
<path class="st2" d="M53.5,435c-3.6,3.6-5.6,8.4-5.6,13.5c0,5.1,2,9.9,5.6,13.5c1.2,1.2,2.7,1.8,4.3,1.8c1.5,0,3.1-0.6,4.3-1.8
	c2.3-2.3,2.3-6.2,0-8.5c-1.3-1.3-2-3.1-2-5c0-1.9,0.7-3.6,2-5c2.8-2.8,7.2-2.8,9.9,0c2.3,2.3,6.2,2.3,8.5,0c2.3-2.3,2.3-6.2,0-8.5
	C73,427.6,60.9,427.6,53.5,435z"/>
<path class="st2" d="M105.6,422c-7.4,7.4-7.4,19.6,0,27c1.2,1.2,2.7,1.8,4.3,1.8s3.1-0.6,4.3-1.8c2.3-2.3,2.3-6.2,0-8.5
	c-2.8-2.8-2.8-7.2,0-9.9c2.8-2.8,7.2-2.8,9.9,0c2.3,2.3,6.2,2.3,8.5,0s2.3-6.2,0-8.5C125.2,414.5,113.1,414.5,105.6,422z"/>
<path class="st2" d="M70.9,395.8c-3.6,3.6-5.6,8.4-5.6,13.5c0,5.1,2,9.9,5.6,13.5c1.2,1.2,2.7,1.8,4.3,1.8c1.5,0,3.1-0.6,4.3-1.8
	c2.3-2.3,2.3-6.2,0-8.5c-1.3-1.3-2-3.1-2-5c0-1.8,0.7-3.6,2-5c2.8-2.8,7.2-2.8,9.9,0c2.3,2.3,6.2,2.3,8.5,0c2.3-2.3,2.3-6.2,0-8.5
	C90.4,388.4,78.3,388.4,70.9,395.8z"/>
</svg>
