<?xml version="1.0" encoding="utf-8"?>
<!-- Generator: Adobe Illustrator 19.0.0, SVG Export Plug-In . SVG Version: 6.00 Build 0)  -->
<svg version="1.1" id="Capa_1" xmlns="http://www.w3.org/2000/svg" xmlns:xlink="http://www.w3.org/1999/xlink" x="0px" y="0px"
	 viewBox="-41 164.9 512 512" style="enable-background:new -41 164.9 512 512;" xml:space="preserve">
<style type="text/css">
	.st0{fill:#FFA466;}
	.st1{fill:#81D3A2;}
	.st2{fill:#514E4E;}
</style>
<path class="st0" d="M425.7,385.4h-13.8c-19.6,0-35.4-15.9-35.4-35.4c0-19.6,15.9-35.4,35.4-35.4h13.8c19.6,0,35.4-15.9,35.4-35.4
	c0-19.6-15.9-35.4-35.4-35.4H146.1c97.9,0,177.2,79.3,177.2,177.2S244,598.1,146.1,598.1h250.1c19.6,0,35.4-15.9,35.4-35.4
	s-15.9-35.4-35.4-35.4h-23.6c-19.6,0-35.4-15.9-35.4-35.4s15.9-35.4,35.4-35.4h53.2c19.6,0,35.4-15.9,35.4-35.4
	S445.3,385.4,425.7,385.4z"/>
<circle class="st1" cx="146.1" cy="420.9" r="177.2"/>
<path class="st2" d="M247.3,530c2.5,0,5-1,7-2.9c0,0,0.1-0.1,0.1-0.1c3.8-3.9,3.7-10-0.1-13.8c-3.8-3.8-10.1-3.8-13.9,0
	c0,0-0.1,0.1-0.1,0.1c-3.8,3.9-3.7,10,0.1,13.8C242.3,529,244.8,530,247.3,530z"/>
<path class="st2" d="M258.5,507.8c1.7,1.1,3.6,1.7,5.5,1.7c3.2,0,6.3-1.5,8.2-4.4c16.7-25,25.5-54.1,25.5-84.2
	c0-5.4-4.4-9.8-9.8-9.8s-9.8,4.4-9.8,9.8c0,26.2-7.7,51.6-22.2,73.3C252.8,498.7,254,504.8,258.5,507.8z"/>
<path class="st2" d="M109.8,325.3c2.5,0,5-1,7-2.9c3.8-3.8,3.8-10.1,0-13.9c-2.2-2.2-3.3-5-3.3-8.1c0-3.1,1.2-5.9,3.3-8.1
	c4.5-4.5,11.7-4.5,16.2,0c3.8,3.8,10.1,3.8,13.9,0c3.8-3.8,3.8-10.1,0-13.9c-12.1-12.1-31.9-12.1-44,0c-5.9,5.9-9.1,13.7-9.1,22
	s3.2,16.1,9.1,22C104.7,324.3,107.3,325.3,109.8,325.3z"/>
<path class="st2" d="M10.6,377.6c-5.9,5.9-9.1,13.7-9.1,22c0,8.3,3.2,16.1,9.1,22c1.9,1.9,4.4,2.9,7,2.9c2.5,0,5-1,7-2.9
	c3.8-3.8,3.8-10.1,0-13.9c-2.2-2.2-3.3-5-3.3-8.1c0-3.1,1.2-5.9,3.3-8.1c4.5-4.5,11.7-4.5,16.2,0c3.8,3.8,10.1,3.8,13.9,0
	c3.8-3.8,3.8-10.1,0-13.9C42.5,365.5,22.8,365.5,10.6,377.6z"/>
<path class="st2" d="M95.7,356.4c-12.1,12.1-12.1,31.9,0,44c1.9,1.9,4.4,2.9,7,2.9s5-1,7-2.9c3.8-3.8,3.8-10.1,0-13.9
	c-4.5-4.5-4.5-11.7,0-16.2c4.5-4.5,11.7-4.5,16.2,0c3.8,3.8,10.1,3.8,13.9,0c3.8-3.8,3.8-10.1,0-13.9
	C127.6,344.2,107.9,344.2,95.7,356.4z"/>
<path class="st2" d="M39,313.8c-5.9,5.9-9.1,13.7-9.1,22c0,8.3,3.2,16.1,9.1,22c1.9,1.9,4.4,2.9,7,2.9c2.5,0,5-1,7-2.9
	c3.8-3.8,3.8-10.1,0-13.9c-2.2-2.2-3.3-5-3.3-8.1c0-3,1.2-5.9,3.3-8.1c4.5-4.5,11.7-4.5,16.2,0c3.8,3.8,10.1,3.8,13.9,0
	c3.8-3.8,3.8-10.1,0-13.9C70.9,301.7,51.1,301.7,39,313.8z"/>
<path class="st2" d="M425.7,375.6h-13.8c-14.1,0-25.6-11.5-25.6-25.6c0-14.1,11.5-25.6,25.6-25.6h13.8c25,0,45.3-20.3,45.3-45.3
	s-20.3-45.3-45.3-45.3H146.1C42.9,233.8-41,317.7-41,420.9S42.9,608,146.1,608h250.1c25,0,45.3-20.3,45.3-45.3
	c0-25-20.3-45.3-45.3-45.3h-23.6c-14.1,0-25.6-11.5-25.6-25.6s11.5-25.6,25.6-25.6h53.2c25,0,45.3-20.3,45.3-45.3
	S450.7,375.6,425.7,375.6z M-21.3,420.9c0-92.3,75.1-167.4,167.4-167.4s167.4,75.1,167.4,167.4s-75.1,167.4-167.4,167.4
	S-21.3,513.2-21.3,420.9z M425.7,446.5h-53.2c-25,0-45.3,20.3-45.3,45.3c0,25,20.3,45.3,45.3,45.3h23.6c14.1,0,25.6,11.5,25.6,25.6
	c0,14.1-11.5,25.6-25.6,25.6H229.6c0.3-0.2,0.7-0.4,1-0.5c0.3-0.2,0.7-0.3,1-0.5c1.1-0.6,2.2-1.1,3.3-1.7c0.1-0.1,0.2-0.1,0.3-0.2
	c1.2-0.6,2.3-1.3,3.5-1.9c0.3-0.2,0.7-0.4,1-0.6c0.9-0.5,1.8-1,2.7-1.6c0.3-0.2,0.6-0.4,0.9-0.5c1.1-0.7,2.2-1.4,3.3-2.1
	c0.3-0.2,0.6-0.4,0.9-0.6c0.8-0.5,1.7-1.1,2.5-1.7c0.4-0.2,0.7-0.5,1.1-0.7c1-0.7,2-1.4,3-2.1c0.2-0.1,0.4-0.3,0.6-0.4
	c0.9-0.7,1.9-1.4,2.8-2c0.4-0.3,0.7-0.5,1.1-0.8c0.8-0.6,1.5-1.2,2.3-1.8c0.3-0.2,0.6-0.5,0.9-0.7c1-0.8,2-1.6,3-2.4
	c0.3-0.3,0.7-0.5,1-0.8c0.7-0.6,1.4-1.2,2.1-1.8c0.4-0.3,0.7-0.6,1.1-0.9c0.9-0.8,1.9-1.7,2.8-2.5c0.2-0.2,0.5-0.4,0.7-0.6
	c0.7-0.7,1.5-1.4,2.2-2.1c0.4-0.3,0.7-0.7,1.1-1c0.7-0.7,1.4-1.3,2-2c0.3-0.3,0.5-0.5,0.8-0.8c0.9-0.9,1.7-1.8,2.6-2.7
	c0.3-0.3,0.6-0.7,1-1c0.6-0.6,1.2-1.3,1.8-1.9c0.3-0.4,0.6-0.7,1-1.1c0.8-0.9,1.7-1.8,2.5-2.8c0.3-0.3,0.5-0.6,0.8-0.9
	c0.6-0.7,1.2-1.4,1.8-2.2c0.3-0.4,0.6-0.8,1-1.2c0.6-0.8,1.2-1.5,1.8-2.3c0.2-0.3,0.4-0.5,0.7-0.8c0.8-1,1.5-2,2.3-3
	c0.3-0.4,0.6-0.8,0.9-1.2c0.5-0.7,1.1-1.4,1.6-2.2c0.3-0.4,0.5-0.7,0.8-1.1c0.7-1,1.4-2,2.1-3.1c0.2-0.3,0.5-0.7,0.7-1.1
	c0.5-0.8,1-1.5,1.5-2.3c0.3-0.4,0.5-0.8,0.8-1.2c0.6-0.9,1.1-1.8,1.7-2.7c0.2-0.3,0.4-0.6,0.6-1c0.6-1,1.2-2,1.8-3
	c0.2-0.4,0.5-0.8,0.7-1.2c0.5-0.8,0.9-1.6,1.4-2.4c0.2-0.4,0.4-0.7,0.6-1.1c0.6-1.1,1.2-2.2,1.8-3.4c0.2-0.4,0.4-0.7,0.6-1.1
	c0.4-0.8,0.8-1.7,1.3-2.5c0.2-0.4,0.4-0.8,0.6-1.3c0.5-1.1,1.1-2.3,1.6-3.4c0.1-0.2,0.2-0.5,0.3-0.7c0.5-1,0.9-2,1.3-3.1
	c0.2-0.4,0.4-0.8,0.5-1.3c0.4-0.9,0.8-1.9,1.1-2.8c0.1-0.3,0.3-0.7,0.4-1c0.5-1.2,0.9-2.4,1.4-3.6c0.1-0.4,0.3-0.8,0.4-1.2
	c0.3-0.9,0.7-1.9,1-2.8c0.1-0.4,0.3-0.8,0.4-1.2c0.4-1.2,0.8-2.5,1.2-3.8c0.1-0.2,0.1-0.5,0.2-0.7c0.3-1.1,0.6-2.1,1-3.2
	c0.1-0.4,0.2-0.8,0.4-1.2c0.3-1.1,0.6-2.1,0.9-3.2c0.1-0.3,0.1-0.5,0.2-0.8c0.3-1.3,0.7-2.6,1-3.9c0.1-0.4,0.2-0.8,0.3-1.1
	c0.2-1,0.5-2.1,0.7-3.1c0.1-0.4,0.2-0.7,0.2-1.1c0.3-1.3,0.5-2.7,0.8-4c0-0.3,0.1-0.5,0.1-0.8c0.2-1.1,0.4-2.2,0.6-3.4
	c0.1-0.4,0.1-0.8,0.2-1.2c0.2-1.2,0.4-2.5,0.5-3.7c0-0.1,0-0.3,0.1-0.4c0.2-1.4,0.3-2.8,0.5-4.1c0-0.4,0.1-0.8,0.1-1.2
	c0.1-1.1,0.2-2.2,0.3-3.3c0-0.3,0.1-0.7,0.1-1c0.1-1.4,0.2-2.8,0.3-4.2c0-0.3,0-0.6,0-0.9c0.1-1.1,0.1-2.3,0.1-3.5
	c0-0.4,0-0.8,0-1.2c0-1.4,0.1-2.9,0.1-4.3s0-2.9-0.1-4.3c0-0.4,0-0.8,0-1.2c0-1.2-0.1-2.3-0.1-3.5c0-0.3,0-0.6,0-0.9
	c-0.1-1.4-0.2-2.8-0.3-4.2c0-0.3-0.1-0.7-0.1-1c-0.1-1.1-0.2-2.2-0.3-3.3c0-0.4-0.1-0.8-0.1-1.2c-0.1-1.4-0.3-2.8-0.5-4.1
	c0-0.1,0-0.3-0.1-0.4c-0.2-1.2-0.3-2.5-0.5-3.7c-0.1-0.4-0.1-0.8-0.2-1.2c-0.2-1.1-0.4-2.2-0.6-3.4c0-0.3-0.1-0.5-0.1-0.8
	c-0.2-1.3-0.5-2.7-0.8-4c-0.1-0.4-0.2-0.7-0.2-1.1c-0.2-1-0.4-2.1-0.7-3.1c-0.1-0.4-0.2-0.8-0.3-1.1c-0.3-1.3-0.6-2.6-1-3.9
	c-0.1-0.3-0.1-0.5-0.2-0.8c-0.3-1.1-0.6-2.2-0.9-3.2c-0.1-0.4-0.2-0.8-0.4-1.2c-0.3-1.1-0.6-2.1-1-3.2c-0.1-0.2-0.1-0.5-0.2-0.7
	c-0.4-1.3-0.8-2.5-1.2-3.8c-0.1-0.4-0.3-0.8-0.4-1.2c-0.3-0.9-0.7-1.9-1-2.8c-0.1-0.4-0.3-0.8-0.4-1.2c-0.5-1.2-0.9-2.4-1.4-3.6
	c-0.1-0.3-0.3-0.7-0.4-1c-0.4-0.9-0.8-1.9-1.1-2.8c-0.2-0.4-0.4-0.8-0.5-1.3c-0.4-1-0.9-2-1.3-3.1c-0.1-0.2-0.2-0.5-0.3-0.7
	c-0.5-1.1-1-2.3-1.6-3.4c-0.2-0.4-0.4-0.8-0.6-1.3c-0.4-0.8-0.8-1.7-1.3-2.5c-0.2-0.4-0.4-0.8-0.6-1.1c-0.6-1.1-1.2-2.2-1.8-3.4
	c-0.2-0.4-0.4-0.7-0.6-1.1c-0.4-0.8-0.9-1.6-1.4-2.4c-0.2-0.4-0.5-0.8-0.7-1.2c-0.6-1-1.2-2-1.8-3c-0.2-0.3-0.4-0.6-0.6-1
	c-0.6-0.9-1.1-1.8-1.7-2.7c-0.3-0.4-0.5-0.8-0.8-1.2c-0.5-0.8-1-1.5-1.5-2.3c-0.2-0.4-0.5-0.7-0.7-1.1c-0.7-1-1.4-2.1-2.1-3.1
	c-0.3-0.4-0.5-0.7-0.8-1.1c-0.5-0.7-1-1.4-1.6-2.2c-0.3-0.4-0.6-0.8-0.9-1.2c-0.7-1-1.5-2-2.3-3c-0.2-0.3-0.4-0.5-0.7-0.8
	c-0.6-0.8-1.2-1.5-1.8-2.3c-0.3-0.4-0.6-0.8-1-1.2c-0.6-0.7-1.2-1.4-1.8-2.1c-0.3-0.3-0.5-0.6-0.8-0.9c-0.8-0.9-1.6-1.9-2.5-2.8
	c-0.3-0.4-0.6-0.7-1-1.1c-0.6-0.7-1.2-1.3-1.8-1.9c-0.3-0.3-0.6-0.7-1-1c-0.9-0.9-1.7-1.8-2.6-2.7c-0.3-0.3-0.5-0.5-0.8-0.8
	c-0.7-0.7-1.4-1.3-2-2c-0.4-0.3-0.7-0.7-1.1-1c-0.7-0.7-1.5-1.4-2.2-2.1c-0.2-0.2-0.5-0.4-0.7-0.6c-0.9-0.8-1.9-1.7-2.8-2.5
	c-0.3-0.3-0.7-0.6-1.1-0.9c-0.7-0.6-1.4-1.2-2.1-1.8c-0.3-0.3-0.7-0.5-1-0.8c-1-0.8-2-1.6-3-2.4c-0.3-0.2-0.6-0.5-0.9-0.7
	c-0.8-0.6-1.5-1.2-2.3-1.8c-0.4-0.3-0.7-0.5-1.1-0.8c-0.9-0.7-1.9-1.4-2.8-2c-0.2-0.1-0.4-0.3-0.6-0.4c-1-0.7-2-1.4-3-2.1
	c-0.4-0.2-0.7-0.5-1.1-0.7c-0.8-0.6-1.7-1.1-2.5-1.7c-0.3-0.2-0.6-0.4-0.9-0.6c-1.1-0.7-2.2-1.4-3.3-2.1c-0.3-0.2-0.6-0.4-0.9-0.5
	c-0.9-0.5-1.8-1.1-2.7-1.6c-0.3-0.2-0.7-0.4-1-0.6c-1.1-0.7-2.3-1.3-3.5-1.9c-0.1-0.1-0.2-0.1-0.3-0.2c-1.1-0.6-2.2-1.2-3.3-1.7
	c-0.3-0.2-0.7-0.4-1-0.5c-0.3-0.2-0.7-0.4-1-0.5h196.1c14.1,0,25.6,11.5,25.6,25.6s-11.5,25.6-25.6,25.6h-13.8
	c-25,0-45.3,20.3-45.3,45.3c0,25,20.3,45.3,45.3,45.3h13.8c14.1,0,25.6,11.5,25.6,25.6C451.3,435,439.8,446.5,425.7,446.5z"/>
</svg>
