<?xml version="1.0" encoding="utf-8"?>
<!-- Generator: Adobe Illustrator 19.0.0, SVG Export Plug-In . SVG Version: 6.00 Build 0)  -->
<svg version="1.1" id="Layer_1" xmlns="http://www.w3.org/2000/svg" xmlns:xlink="http://www.w3.org/1999/xlink" x="0px" y="0px"
	 viewBox="0 0 1384.2 727.2" style="enable-background:new 0 0 1384.2 727.2;" xml:space="preserve">
<g id="XMLID_1_">
	<path id="XMLID_20_" d="M90.6,727.2c10.1-8.1,21.7-13.7,32.6-20.4c94.6-58.5,195.3-103.1,303.5-128.9
		c70.3-16.8,140.8-33.4,213.1-38.7c54.3-3.9,108.8-6,163.2-8.6c11.8-0.6,23.7-0.1,37.1-0.1c-12.5-13.7-23.8-25.6-34.3-38
		c-4.4-5.2-9-7-15.6-6.1c-7,0.9-14,1.4-21,1.8c-44.1,2.6-87.9,7.4-130.6,18.6c-25.6,6.7-50.7,15.5-76.1,23.2
		c-6.3,1.9-12.7,3.5-19.1,5.3c-0.5-1.3-0.3-0.8-0.9-2.1c56.9-30.9,116.1-56.4,177.9-76.2c-142,16.5-277.9,53.3-405.7,118.1
		c58-39.5,119.5-72.1,184-99.4C375.9,501.1,262,548.1,156.4,615.8c56.7-47.7,116-91.2,182.3-124.6c-3.5,0.2-6.6,1.1-9.5,2.5
		C286.5,513.8,31.2,624.8,0,642.4c0-11.3,343.8-235.4,447.4-280.5c64.5-28.1,130-53.6,198.1-71.3c30.9-8.1,62.1-14.6,93.2-22.1
		c2.6-0.6,6.4-2.4,6.9-4.4c2.5-9.1,4.1-18.4,6.1-28.3c-2.6,0.2-3.9,0.2-5.3,0.4c-62.2,8.8-122.7,25-182.8,42.8
		c-62.4,18.4-122.4,43.1-181.4,70.5c-74.2,34.4-144,76.6-210.5,124.1c-26.9,19.2-52.3,40.3-78.9,59.9c6.1-12.5,17.5-19.5,26.9-28.6
		c56.9-55.2,117.4-106.1,183.1-150.6c82.9-56.2,171.5-101.5,263.9-139.6c68.3-28.2,138.5-50,210.8-65.2c11.1-2.3,19.8-7.4,25.7-17.5
		c3.9-6.5,9.1-12.2,13.7-18.3c1.5-2,3-4.2,5.6-7.9c-60.1,8.1-116.8,20.4-172,39.3c-55,18.9-106.8,44.1-156.2,74.8
		c12.7-11.3,25.8-21.8,39.9-30.8c42.2-26.9,85.9-51,132.4-69.9C723,96.6,780.7,79.1,840.6,69.2c18.4-3,36.3-6.3,51.8-18.5
		c9.4-7.4,21-12.1,31.8-17.6c7.9-4,16-7.4,24.1-11.1c-37.8-0.3-74.9,3.1-111.5,11.3c-36.9,8.2-72.5,20.3-106.6,36.8
		c0.5-1.6,1.4-2.8,2.5-3.3c24-11.2,47.3-24.7,72.3-33C870.3,11.9,937.8,0.2,1007.1,1c30.8,0.4,61.6-2.1,92.3-0.5
		c42.3,2.3,82,15.3,119.9,33.9c128.6,63.1,194.4,209.8,152.1,346.6c-20.1,65.2-58,118.2-112,159.3c-41.3,31.4-87.5,52.6-138.8,61.7
		c-19.7,3.5-39.8,4.5-59.5,8c-42.1,7.3-84.2,13.3-127,14.1c-53.3,1-106.1-2.1-157.4-18.6c-8.1-2.6-16-5.7-24-8.6
		c76.7,20.6,153.7,19.9,231.2,6.4c-1.8-1.3-3.6-2.1-5.5-2.4c-34.6-5.3-69-12.5-103.8-15.3c-59-4.7-118.2-7.8-177.4-9.4
		c-53.4-1.4-106.7,1.9-159.7,8.6c-65,8.2-129.7,18.9-192.7,37.2c-36.8,10.7-73.6,22.3-108.9,37.1
		C186.4,679.6,139.1,704.9,90.6,727.2z"/>
</g>
</svg>
